# xmcd
#
# Track frame offsets: 
#        150
#        13958
#        31535
#        45931
#        63330
#        77548
#        90718
#        104898
#        119725
#        133865
#        151049
#        162997
#        176297
#        188152
#        203744
#        214814
#        230201
#        243936
#        258276
#
# Disc length: 3597 seconds
#
# Revision: 1
# Processed by: cddbd v1.5.2PL0 Copyright (c) Steve Scherf et al.
# Submitted via: ExactAudioCopyFreeDBPlugin 1.0
#
DISCID=fd0e0b13
DTITLE=Various Artist - Highway Of Legends
DYEAR=2005
DGENRE=Country
TTITLE0=Hamilton County Bluegrass Band - Carolina In My Mind
TTITLE1=Hamilton County Bluegrass Band - Thinking Of You
TTITLE2=Hamilton County Bluegrass Band - Cross The River
TTITLE3=Hamilton County Bluegrass Band - I Believe In You
TTITLE4=Brendan Dugan with Jodi Vaughan - If I Needed You
TTITLE5=Brendan Dugan - For Strong Winds
TTITLE6=Brendan Dugan - That's The Way Love Goes
TTITLE7=Brendan Dugan - Welcome To Our World
TTITLE8=Jodi Vaughan with Gray - Queen Of The Silver Dollar
TTITLE9=Jodi Vaughan - Wheres My Teddy Bear
TTITLE10=Jodi Vaughan - Stand By Your Man
TTITLE11=Gray Bartlett - Apache
TTITLE12=Gray Bartlett - White Rabbit
TTITLE13=Gray Bartlett - Through These Eyes
TTITLE14=Martin Crump - All Is Well
TTITLE15=Patsy Riggir - Beautiful Lady
TTITLE16=Patsy Riggir - Lay Down Be Side Me
TTITLE17=Patsy Riggir - There's A Kind Of Hush
TTITLE18=Patsy Riggir - Never Ending Song Of Love
EXTD=The “Highway Of Legends” album is a Special Compilation CD contai
EXTD=ning New Zealand’s biggest Country music Legends ever assembled i
EXTD=n a National Tour. Iconic Kiwi entertainers Jodi Vaughan, Gray Ba
EXTD=rtlett, Brendan Dugan, Patsy Riggir, the Hamilton County Bluegras
EXTD=s Band together with Martin Crump. 
EXTT0=
EXTT1=
EXTT2=
EXTT3=
EXTT4=
EXTT5=
EXTT6=
EXTT7=
EXTT8=
EXTT9=
EXTT10=
EXTT11=
EXTT12=
EXTT13=
EXTT14=
EXTT15=
EXTT16=
EXTT17=
EXTT18=
PLAYORDER=
